<?xml version="1.0" encoding="UTF-8" standalone="no"?>
<!-- Created with Inkscape (http://www.inkscape.org/) -->

<svg
   width="132.04932"
   height="197.19279"
   viewBox="0 0 132.04932 197.19279"
   version="1.1"
   id="svg1"
   inkscape:version="1.3.2 (091e20e, 2023-11-25, custom)"
   sodipodi:docname="Icons_copyfile.svg"
   xml:space="preserve"
   xmlns:inkscape="http://www.inkscape.org/namespaces/inkscape"
   xmlns:sodipodi="http://sodipodi.sourceforge.net/DTD/sodipodi-0.dtd"
   xmlns:xlink="http://www.w3.org/1999/xlink"
   xmlns="http://www.w3.org/2000/svg"
   xmlns:svg="http://www.w3.org/2000/svg"><sodipodi:namedview
     id="namedview1"
     pagecolor="#ffffff"
     bordercolor="#999999"
     borderopacity="1"
     inkscape:showpageshadow="0"
     inkscape:pageopacity="0"
     inkscape:pagecheckerboard="0"
     inkscape:deskcolor="#d1d1d1"
     inkscape:document-units="px"
     inkscape:zoom="0.70710678"
     inkscape:cx="1173.0902"
     inkscape:cy="-323.1478"
     inkscape:window-width="1920"
     inkscape:window-height="991"
     inkscape:window-x="-9"
     inkscape:window-y="-9"
     inkscape:window-maximized="1"
     inkscape:current-layer="g198"
     showgrid="false"
     showguides="true"
     inkscape:export-bgcolor="#ffffff00"><sodipodi:guide
       position="-1678.0776,1226.4635"
       orientation="0,1920"
       id="guide3"
       inkscape:locked="false" /><sodipodi:guide
       position="241.92236,1226.4635"
       orientation="1080,0"
       id="guide4"
       inkscape:locked="false" /><sodipodi:guide
       position="241.92236,146.46352"
       orientation="0,-1920"
       id="guide5"
       inkscape:locked="false" /><sodipodi:guide
       position="-1678.0776,146.46352"
       orientation="-1080,0"
       id="guide6"
       inkscape:locked="false" /><inkscape:grid
       id="grid6"
       units="px"
       originx="-1678.0777"
       originy="-146.46351"
       spacingx="1"
       spacingy="1"
       empcolor="#0099e5"
       empopacity="0.30196078"
       color="#0099e5"
       opacity="0.14901961"
       empspacing="5"
       dotted="false"
       gridanglex="30"
       gridanglez="30"
       visible="false" /><sodipodi:guide
       position="212.01876,385.71355"
       orientation="1,0"
       id="guide10"
       inkscape:locked="false" /><sodipodi:guide
       position="-279.42044,1266.0615"
       orientation="0,-1"
       id="guide24"
       inkscape:locked="false" /><sodipodi:guide
       position="-1002.0835,1307.0737"
       orientation="0,-1"
       id="guide25"
       inkscape:locked="false" /><sodipodi:guide
       position="-1044.8276,596.46352"
       orientation="1,0"
       id="guide52"
       inkscape:locked="false" /><sodipodi:guide
       position="284.14366,1197.4721"
       orientation="1,0"
       id="guide184"
       inkscape:locked="false" /><sodipodi:guide
       position="11.200463,620.473"
       orientation="0,-1"
       id="guide185"
       inkscape:locked="false" /></sodipodi:namedview><defs
     id="defs1"><linearGradient
       id="linearGradient205"
       inkscape:collect="always"><stop
         style="stop-color:#daffff;stop-opacity:1;"
         offset="0.06060606"
         id="stop203" /><stop
         style="stop-color:#f0ffff;stop-opacity:1;"
         offset="0.19390056"
         id="stop204" /><stop
         style="stop-color:#f2f2f2;stop-opacity:1;"
         offset="0.37577906"
         id="stop206" /><stop
         style="stop-color:#c4c4c4;stop-opacity:1;"
         offset="0.96410257"
         id="stop205" /></linearGradient><inkscape:path-effect
       effect="fillet_chamfer"
       id="path-effect203"
       is_visible="true"
       lpeversion="1"
       nodesatellites_param="F,0,0,1,0,0,0,1 @ F,0,0,1,0,0,0,1 @ F,0,0,1,0,0,0,1 @ F,0,0,1,0,0,0,1 @ F,0,1,1,0,1.3313606,0,1 @ F,0,0,1,0,1.3313606,0,1"
       radius="0"
       unit="px"
       method="auto"
       mode="F"
       chamfer_steps="1"
       flexible="false"
       use_knot_distance="true"
       apply_no_radius="true"
       apply_with_radius="true"
       only_selected="false"
       hide_knots="false" /><inkscape:path-effect
       effect="fillet_chamfer"
       id="path-effect201"
       is_visible="true"
       lpeversion="1"
       nodesatellites_param="F,0,0,1,0,0,0,1 @ F,0,0,1,0,0,0,1 @ F,0,0,1,0,0,0,1 @ F,0,0,1,0,0,0,1 @ F,0,0,1,0,1.3313606,0,1 @ F,0,0,1,0,1.3313606,0,1"
       radius="0"
       unit="px"
       method="auto"
       mode="F"
       chamfer_steps="1"
       flexible="false"
       use_knot_distance="true"
       apply_no_radius="true"
       apply_with_radius="true"
       only_selected="false"
       hide_knots="false" /><linearGradient
       inkscape:collect="always"
       xlink:href="#linearGradient205"
       id="linearGradient203"
       gradientUnits="userSpaceOnUse"
       x1="995.69415"
       y1="313.08731"
       x2="1041.5482"
       y2="313.08731" /></defs><g
     inkscape:groupmode="layer"
     id="layer2"
     inkscape:label="Line"
     transform="translate(-1678.0776,-146.46352)"><g
       id="g198"
       inkscape:label="ROBOT Icon - ver 4"
       transform="matrix(2.4109251,0,0,2.4109251,-711.7171,-517.72498)"
       style="opacity:1"
       inkscape:export-filename="Loc_Robot_png.png"
       inkscape:export-xdpi="290.80045"
       inkscape:export-ydpi="290.80045"><g
         id="g182"
         inkscape:label="Anttene"><path
           style="fill:none;fill-opacity:1;stroke:#a5bebf;stroke-width:2.65;stroke-linecap:butt;stroke-linejoin:miter;stroke-dasharray:none;stroke-opacity:1"
           d="M 677.2191,559.64506 V 531.25"
           id="path182"
           transform="matrix(0.41477854,0,0,0.41477854,755.96268,57.628709)" /><circle
           style="opacity:1;fill:#e09441;fill-opacity:1;stroke:none;stroke-width:1.85;stroke-linecap:round;stroke-linejoin:round;stroke-dasharray:none;stroke-opacity:1"
           id="circle182"
           cx="677.21912"
           cy="531.25"
           r="6.0000014"
           transform="matrix(0.41477854,0,0,0.41477854,755.96268,57.628709)" /></g><path
         d="m 996.44288,309.21548 c 0,0 0.11338,-3.64148 0.0835,-5.60251 -0.0773,-5.06838 0.70656,-9.87922 3.47362,-13.84684 v -0.009 l -7.45042,2.36136 a 1.8264801,1.8264801 126.32526 0 0 -1.27463,1.73359 l -0.0393,9.54119 a 2.8885597,2.8885597 65.490791 0 0 1.00317,2.20033 z"
         style="opacity:1;fill:#a5bebf;fill-opacity:1;stroke-width:4.80172"
         id="path183"
         sodipodi:nodetypes="csccccc"
         transform="matrix(-1,0,0,1,2037.2424,0)"
         inkscape:original-d="m 996.44288,309.21548 c 0,0 0.11338,-3.64148 0.0835,-5.60251 -0.0773,-5.06838 0.70656,-9.87922 3.47362,-13.84684 v -0.009 l -8.71956,2.7636 -0.0503,12.20389 z"
         inkscape:path-effect="#path-effect201"
         inkscape:label="Ear right" /><path
         d="m 996.44285,309.21548 c 0,0 0.11341,-3.64148 0.0835,-5.60251 -0.0773,-5.06838 0.70656,-9.87922 3.47365,-13.84684 v -0.009 l -7.45045,2.36136 a 1.8264782,1.8264782 126.32529 0 0 -1.27463,1.73359 l -0.0393,9.54119 a 2.8885597,2.8885597 65.490791 0 0 1.00317,2.20033 z"
         style="opacity:1;fill:#a5bebf;fill-opacity:1;stroke-width:4.80172"
         id="path184"
         sodipodi:nodetypes="csccccc"
         inkscape:original-d="m 996.44285,309.21548 c 0,0 0.11341,-3.64148 0.0835,-5.60251 -0.0773,-5.06838 0.70656,-9.87922 3.47365,-13.84684 v -0.009 l -8.71959,2.7636 -0.0503,12.20389 z"
         inkscape:path-effect="#path-effect203"
         inkscape:label="Ear Left" /><path
         d="m 1018.6209,279.61517 c -7.6325,0.0971 -14.444,4.16119 -18.6213,10.15073 -2.76707,3.9676 -4.37982,8.77894 -4.30252,13.84729 0.0299,1.96101 0.41685,4.9474 1.23948,7.26105 4.49404,12.63945 19.79104,35.0415 19.79104,35.0415 0,0 0.8076,1.26702 1.8933,1.26702 1.1993,0 1.894,-1.26702 1.894,-1.26702 0,0 15.2971,-22.40206 19.7911,-35.0415 0.8226,-2.31365 1.2096,-5.30004 1.2395,-7.26105 0.077,-5.06836 -1.5361,-9.87969 -4.3033,-13.84729 -4.1772,-5.98954 -10.9888,-10.05361 -18.6213,-10.15073 z"
         style="opacity:1;fill:url(#linearGradient203);fill-rule:evenodd;stroke-width:0.474295"
         id="path65" /><path
         d="m 1018.6224,286.27943 c -8.8896,-4.1e-4 -16.0973,6.17489 -16.0978,13.79301 0.013,3.10831 1.2503,6.12223 3.5119,8.55237 l -2.4855,5.64731 c -0.3189,0.72396 0.6192,1.40198 1.5554,1.12444 l 8.055,-2.38336 c 1.7486,0.55353 3.5969,0.84226 5.461,0.85386 8.8898,-2.3e-4 16.0956,-6.17642 16.0954,-13.79462 -5e-4,-7.61764 -7.2063,-13.79278 -16.0954,-13.79301 z"
         id="path190"
         style="fill:#006080;fill-opacity:1;stroke-width:0.414779" /><path
         id="path191"
         style="opacity:1;fill:#479db8;fill-opacity:1;stroke:none;stroke-width:1.15139;stroke-linecap:round;stroke-linejoin:round;stroke-dasharray:none;stroke-opacity:1"
         d="m 1023.1676,286.84084 a 12.449077,15.343096 7.8501265e-7 0 1 2.6571,14.07088 13.563719,16.716857 7.8501265e-7 0 1 -12.4085,12.18169 16.0966,13.793813 0 0 0 5.2058,0.77366 16.0966,13.793813 0 0 0 16.097,-13.79382 16.0966,13.793813 0 0 0 -11.5514,-13.23241 z" /><ellipse
         style="opacity:1;fill:#e09441;fill-opacity:1;stroke:none;stroke-width:2.54523;stroke-dasharray:none;stroke-opacity:1"
         id="ellipse191"
         cx="1011.2158"
         cy="297.83734"
         rx="3.266381"
         ry="4.1996326" /><ellipse
         style="opacity:1;fill:#e09441;fill-opacity:1;stroke:none;stroke-width:2.54523;stroke-dasharray:none;stroke-opacity:1"
         id="ellipse192"
         cx="1025.698"
         cy="297.83734"
         rx="3.266381"
         ry="4.1996326" /><path
         style="fill:none;fill-opacity:1;stroke:#e09441;stroke-width:1.09916;stroke-linecap:round;stroke-linejoin:round;stroke-dasharray:none;stroke-opacity:1"
         d="m 1016.4298,303.01511 c 1.461,1.54014 2.9219,1.54646 4.3828,0.0195"
         id="path198"
         sodipodi:nodetypes="cc"
         inkscape:label="Mouth" /><ellipse
         style="fill:#cccccc;fill-opacity:1;stroke:none;stroke-width:1.09916;stroke-linecap:round;stroke-linejoin:round;stroke-dasharray:none;stroke-opacity:1"
         id="ellipse198"
         cx="1018.6212"
         cy="354.34955"
         rx="16.0966"
         ry="2.9329271" /></g></g></svg>
